<svg version="1.1" xmlns="http://www.w3.org/2000/svg" xmlns:xlink="http://www.w3.org/1999/xlink" width="754.000000pt" height="331.000000pt" viewBox="0,0,256,112.375"><g fill="#ffffff" fill-rule="nonzero" stroke="none" stroke-width="1" stroke-linecap="butt" stroke-linejoin="miter" stroke-miterlimit="10" stroke-dasharray="" stroke-dashoffset="0" font-family="none" font-weight="none" font-size="none" text-anchor="none" style="mix-blend-mode: normal"><g transform="translate(-1.80964,-1.07228) scale(0.33952,0.33952)"><g transform="translate(0,331) scale(0.1,-0.1)"><path d="M1375,2865c-121,-41 -230,-74 -242,-74c-12,-1 -38,8 -57,20c-19,11 -42,19 -50,17c-22,-4 40,-98 64,-98c9,0 67,11 128,25c150,34 154,34 140,-7c-6,-18 -15,-37 -19,-42c-13,-15 -11,-26 5,-26c8,0 46,33 85,73c61,64 79,76 138,95c81,26 136,58 130,75c-2,7 -24,13 -53,14c-37,1 -101,-16 -269,-72z"></path><path d="M1172,2910c2,-8 32,-24 65,-36c60,-23 63,-23 110,-6l48,17l-100,10c-55,6 -106,14 -114,19c-9,6 -12,5 -9,-4z"></path><path d="M940,2694c-264,-123 -500,-367 -606,-628c-55,-136 -84,-264 -91,-406c-16,-345 100,-654 336,-891c183,-184 363,-267 868,-399l231,-60l439,121c241,67 483,134 538,149l100,27l3,81c2,62 0,82 -10,82c-8,0 -47,-9 -88,-21c-41,-11 -154,-42 -250,-69c-96,-26 -298,-82 -448,-124c-150,-42 -281,-76 -291,-76c-10,0 -65,13 -122,29c-57,16 -187,52 -289,80c-317,87 -333,92 -413,121c-171,62 -288,166 -374,335c-250,493 -185,1047 166,1408c94,97 181,163 302,227c108,57 108,64 -1,14z"></path><path d="M1630,2643c-16,-7 -261,-75 -682,-190c-137,-38 -248,-71 -248,-74c0,-7 268,-79 295,-79c11,0 166,41 345,90c179,50 330,90 335,90c6,0 157,-40 335,-90c179,-49 336,-90 350,-90c36,1 296,75 284,82c-18,11 -960,268 -979,267c-11,0 -27,-3 -35,-6z"></path><path d="M590,2258v-85l542,-150l543,-150l80,22c44,13 288,80 543,151l462,127v85v84l-27,-7c-16,-3 -255,-70 -533,-147c-278,-77 -514,-140 -525,-140c-11,0 -247,63 -525,140c-278,77 -517,143 -532,147l-28,7z"></path><path d="M593,1891l2,-82l65,-19c73,-21 161,-46 667,-185l352,-97l478,132c263,73 505,140 538,149l60,16l3,83c2,45 -1,82 -6,82c-7,0 -211,-56 -813,-223l-266,-74l-519,144c-286,79 -529,146 -541,149c-21,6 -22,4 -20,-75z"></path><path d="M5561,1700c-77,-19 -116,-80 -91,-140c7,-17 44,-59 82,-93c88,-79 90,-102 8,-102c-30,0 -68,4 -83,8l-28,8l7,-48c3,-26 7,-49 8,-50c7,-9 124,-14 171,-8c81,10 120,46 120,111c0,46 -2,48 -80,120c-68,63 -78,77 -69,92c10,14 24,17 78,15l66,-2l-6,42c-4,23 -7,43 -8,43c-6,8 -149,11 -175,4z"></path><path d="M2886,1688c-3,-7 -7,-85 -10,-173c-4,-87 -9,-176 -13,-197l-6,-38h57h56v53c0,89 13,237 20,237c7,0 74,-137 119,-242l20,-48h79h79l7,173c4,94 9,189 13,210l6,37h-56h-56l-3,-145c-2,-80 -7,-146 -12,-148c-4,-1 -39,63 -76,143l-68,145l-76,3c-56,2 -77,-1 -80,-10z"></path><path d="M4028,1654l-3,-47l-57,-2c-114,-5 -188,-80 -188,-191c0,-110 93,-172 195,-130c19,8 35,11 35,5c0,-5 24,-9 54,-9h54l6,105c3,58 9,152 12,210l6,105h-55h-56zM4020,1466c0,-49 -5,-69 -21,-90c-43,-54 -119,-5 -105,67c11,57 41,87 87,87h39z"></path><path d="M4220,1665v-36l58,3c56,3 57,3 60,36l3,32h-60h-61z"></path><path d="M5056,1608c-3,-51 -8,-146 -12,-210l-6,-118h54h54l10,100c11,111 27,140 75,140c42,0 51,-26 47,-141l-3,-99h58h57l2,108c1,128 -1,161 -13,184c-21,39 -140,49 -178,14c-31,-28 -37,-19 -33,49l4,65h-55h-55z"></path><path d="M6246,1538c-3,-90 -9,-184 -12,-210l-7,-48h60h60l7,113c3,61 9,156 13,210l6,97h-60h-60z"></path><path d="M677,1670c106,-12 170,-46 261,-137c43,-44 91,-105 109,-139c18,-33 68,-159 111,-279c127,-351 172,-429 283,-490l54,-28l-41,40c-23,22 -56,61 -73,87c-49,70 -66,113 -196,471c-93,256 -171,362 -323,437c-79,40 -92,43 -171,45l-86,1z"></path><path d="M2639,1654c-62,-34 -124,-49 -339,-84c-275,-44 -319,-58 -412,-128c-70,-53 -60,-69 13,-22c92,59 150,77 382,115c272,45 339,66 392,125c22,25 21,24 -36,-6z"></path><path d="M6515,1666c-44,-10 -50,-14 -53,-39c-3,-21 -9,-27 -26,-27c-16,0 -26,-7 -30,-22c-12,-45 -7,-58 19,-58h25l-2,-100c-3,-91 -1,-101 19,-122c18,-17 37,-23 88,-26l65,-4v30c0,17 3,37 6,46c5,13 -1,16 -25,16c-37,0 -44,18 -39,101c3,53 3,54 38,59c32,5 35,8 38,43c3,36 3,37 -32,37c-33,0 -35,2 -38,38l-3,38z"></path><path d="M945,1626c59,-48 133,-129 171,-187c58,-89 84,-149 165,-389c39,-113 85,-232 102,-264c75,-141 217,-232 283,-181c18,15 18,15 -8,9c-37,-8 -106,25 -152,72c-52,54 -113,185 -191,414c-112,328 -174,423 -336,512c-29,16 -45,22 -34,14z"></path><path d="M622,1575c18,-53 19,-67 8,-140c-6,-44 -18,-105 -25,-135c-8,-30 -19,-93 -26,-140c-10,-74 -10,-92 4,-140c10,-30 32,-76 51,-101c32,-43 145,-129 170,-129c6,0 -5,10 -24,21c-84,50 -142,133 -160,227c-7,38 -2,79 26,218c46,234 44,273 -19,349l-25,30z"></path><path d="M760,1606c0,-2 18,-16 41,-32c93,-64 179,-217 278,-494c89,-246 133,-323 233,-402l42,-33l-43,55c-55,69 -92,147 -176,380c-91,250 -133,336 -202,410c-59,64 -173,140 -173,116z"></path><path d="M3491,1600c-76,-18 -121,-80 -121,-168c0,-95 49,-149 143,-159c144,-15 235,83 205,222c-19,87 -114,132 -227,105zM3590,1515c18,-22 24,-91 10,-125c-14,-35 -50,-48 -85,-32c-41,19 -45,111 -7,155c18,21 65,22 82,2z"></path><path d="M4570,1603c-8,-3 -25,-15 -37,-26l-23,-20v21c0,20 -5,22 -49,22h-48l-7,-137c-4,-76 -10,-148 -13,-160c-5,-22 -2,-23 55,-23h59l5,88c3,49 10,98 17,110c6,12 29,27 51,33c39,12 40,14 40,56c0,44 -9,51 -50,36z"></path><path d="M4775,1603c-11,-2 -30,-6 -41,-8c-17,-4 -23,-14 -26,-44c-3,-37 -2,-38 20,-30c13,5 48,9 78,9c46,0 54,-3 54,-19c0,-20 -20,-30 -112,-55c-67,-19 -88,-43 -88,-103c0,-34 5,-46 25,-59c34,-22 98,-30 112,-13c17,22 27,63 14,54c-7,-4 -23,-4 -37,-1c-26,7 -33,37 -11,53c17,13 85,32 92,25c3,-3 2,-34 -1,-69l-7,-63h55h55l7,53c10,90 7,222 -7,241c-20,28 -116,43 -182,29z"></path><path d="M6755,1601c-24,-5 -30,-13 -37,-45c-5,-21 -7,-41 -5,-43c3,-2 16,1 31,7c15,5 47,10 71,10c80,0 68,-40 -18,-60c-95,-23 -137,-57 -137,-112c0,-46 39,-80 97,-85c54,-6 56,-4 67,40c6,26 5,28 -14,22c-23,-7 -50,10 -50,32c0,8 16,21 35,29c61,25 65,22 65,-51v-65h54h53l7,46c9,72 7,223 -4,244c-18,34 -128,50 -215,31z"></path><path d="M7215,1590c-47,-24 -45,-24 -45,-5c0,11 -13,15 -54,15h-53l-7,-142c-4,-79 -10,-151 -12,-160c-5,-16 2,-18 55,-18h61v43c0,65 20,160 37,180c18,19 50,22 73,7c12,-7 15,-32 14,-120l-1,-110h57h57l6,120c6,148 1,170 -44,192c-45,24 -96,23 -144,-2z"></path><path d="M732,1571c70,-60 153,-214 237,-441c73,-197 124,-294 188,-361c73,-76 114,-101 50,-29c-56,62 -96,143 -167,340c-93,256 -168,395 -251,462c-58,47 -108,72 -57,29z"></path><path d="M2568,1574c-32,-14 -124,-35 -210,-49c-311,-51 -388,-74 -466,-140c-43,-36 -35,-43 13,-10c55,36 168,69 345,99c243,41 298,58 365,110c25,20 22,19 -47,-10z"></path><path d="M5817,1503c-11,-163 -10,-171 22,-204c25,-25 37,-29 83,-29c35,0 64,7 86,20c39,24 42,24 42,5c0,-12 13,-15 55,-15h55v53c0,30 3,102 7,160l6,107h-56c-39,0 -57,-4 -58,-12c0,-7 -4,-50 -8,-95c-9,-98 -28,-133 -71,-133c-43,0 -52,25 -48,141l3,99h-56h-56z"></path><path d="M4216,1503c-3,-49 -8,-118 -11,-155l-5,-68h60h60v63c0,35 3,105 6,155l7,92h-56h-55z"></path><path d="M702,1519c14,-40 6,-122 -26,-278c-14,-68 -26,-142 -26,-166c0,-61 25,-124 69,-175l40,-45l-30,59c-38,76 -39,164 -4,337c31,154 31,181 0,247c-27,57 -40,70 -23,21z"></path><path d="M2556,1523c-45,-24 -76,-31 -276,-67c-102,-19 -216,-43 -255,-55c-64,-19 -142,-57 -134,-65c2,-2 42,9 89,24c47,15 141,37 210,49c237,42 323,67 385,115c26,20 18,19 -19,-1z"></path><path d="M770,1464c15,-40 12,-103 -12,-216c-39,-188 -29,-302 33,-378l20,-25l-17,35c-27,55 -28,150 -5,284c26,149 27,228 1,284c-21,46 -36,58 -20,16z"></path><path d="M1460,1466c0,-2 7,-20 15,-39c22,-54 18,-131 -15,-287c-35,-166 -38,-247 -9,-309c26,-59 78,-121 120,-145l34,-19l-37,37c-45,47 -88,134 -95,195c-3,30 6,96 26,195c17,82 31,179 31,216c0,58 -4,73 -31,113c-28,42 -39,55 -39,43z"></path><path d="M1557,1363c13,-46 6,-121 -21,-251c-34,-160 -34,-242 -1,-308c14,-28 37,-61 51,-75l26,-24l-29,55c-25,49 -28,64 -27,145c1,50 11,134 23,189c26,123 27,198 1,254c-22,48 -34,56 -23,15z"></path><path d="M1747,1325c-21,-43 -22,-85 -3,-128c18,-42 50,-71 111,-99c49,-23 55,-23 425,-23h375l53,-26c58,-29 64,-25 27,20c-48,56 -124,65 -465,52c-275,-10 -327,-5 -416,39c-81,40 -98,66 -91,142c3,32 4,58 3,58c-1,0 -10,-16 -19,-35z"></path><path d="M1836,1308c12,-20 39,-43 69,-58c50,-25 52,-25 395,-30c339,-5 346,-5 390,-29l45,-24l-20,23c-11,13 -40,32 -65,44c-42,19 -68,21 -365,27c-335,6 -364,10 -430,55l-37,25z"></path><path d="M1627,1310c13,-39 7,-125 -16,-243c-35,-180 -26,-279 33,-352c15,-18 15,-17 0,19c-20,49 -16,186 11,349c20,126 15,181 -21,231c-16,21 -16,21 -7,-4z"></path><path d="M1800,1279c0,-28 40,-79 78,-98c68,-35 149,-41 457,-35c272,6 294,5 348,-13l58,-20l-22,23c-48,51 -96,57 -449,58c-320,1 -326,1 -378,25c-29,13 -62,35 -72,49c-12,14 -20,19 -20,11z"></path><path d="M1730,1129c0,-7 19,-31 43,-54c74,-74 104,-79 478,-70c352,8 403,3 440,-43c19,-25 20,-32 4,-77c-5,-14 1,-11 19,10c36,41 35,87 -2,113c-53,38 -107,46 -272,42c-85,-3 -238,-5 -340,-5c-205,0 -252,9 -329,66c-23,16 -41,24 -41,18z"></path><path d="M2595,956c-44,-30 -176,-68 -354,-101c-201,-37 -251,-51 -318,-91c-58,-34 -54,-38 10,-9c30,14 114,35 202,50c272,47 391,83 460,140c32,26 32,34 0,11z"></path><path d="M2568,900c-70,-46 -154,-70 -390,-110c-182,-31 -235,-46 -300,-87c-50,-31 -48,-39 2,-13c43,22 151,45 368,80c192,31 289,69 356,139c37,39 34,38 -36,-9z"></path><path d="M2639,907c-32,-39 -122,-94 -193,-118c-28,-10 -150,-34 -270,-54c-244,-40 -305,-59 -362,-111l-39,-35l45,25c64,35 130,52 345,86c105,17 210,36 235,42c107,26 197,83 252,158c35,48 24,54 -13,7z"></path></g></g></g></svg>